# xmcd CD database file
#
# Track frame offsets:
#	150
#	18645
#	31642
#	46595
#	61345
#	81092
#	101550
#	116205
#	139930
#	154442
#	169500
#	182372
#
# Disc length: 2639 seconds
#
# Revision: 0
# Processed by: cddbd v1.5.2PL0 Copyright (c) Steve Scherf et al.
# Submitted via: CDex 1.70beta2
#
DISCID=920a4d0c
DTITLE=Seslost T.O. - Az modry dym
DYEAR=1996
DGENRE=Trampska
TTITLE0=Hoj trempove
TTITLE1=Rad se vratim zas
TTITLE2=Horici prerie
TTITLE3=Vandrak
TTITLE4=Georgia
TTITLE5=Pozdrav naposledy
TTITLE6=Cerna Mary
TTITLE7=Az svetylka v dali vzplanou
TTITLE8=Modry dym
TTITLE9=Stihly skuner
TTITLE10=Hola ria hou
TTITLE11=Izabel
EXTD=YEAR: 1996
EXTT0=
EXTT1=
EXTT2=
EXTT3=
EXTT4=
EXTT5=
EXTT6=
EXTT7=
EXTT8=
EXTT9=
EXTT10=
EXTT11=
PLAYORDER=
